# xmcd
#
# Track frame offsets:
# 150
# 14555
# 34509
# 54014
# 75768
# 93322
# 116426
# 134430
# 154235
# 175690
# 192045
# 208999
# 225130
# 245235
#
# Disc length: 3557 seconds
#
#
# Revision: 0
# Processed by: cddbd v1.5.2PL0 Copyright (c) Steve Scherf et al.
# Submitted via: FreeRIP 2.96 
#
DISCID=a40de30e
DTITLE=Bone Thugs-N-Harmony - Strength and Loyalty
DYEAR=2007
DGENRE=Rap
TTITLE0=Flow Motion
TTITLE1=Bump In The Trunk (ft. Swizz Beatz)
TTITLE2=Wind Blow
TTITLE3=I Tried (ft. Akon)
TTITLE4=Lil Love (ft. Mariah Carey and Bow Wow)
TTITLE5=C-Town (ft. Twista)
TTITLE6=Order My Steps (Dear Lord) (ft. Yolanda Adams)
TTITLE7=Streets (ft. The Game and will.i.am)
TTITLE8=9mm
TTITLE9=Gun Blast
TTITLE10=Candy Paint
TTITLE11=So Good So Right (ft. Felecia)
TTITLE12=Sound The Same
TTITLE13=Never Forget Me (ft. Akon)
EXTD=
EXTT0=
EXTT1=
EXTT2=
EXTT3=
EXTT4=
EXTT5=
EXTT6=
EXTT7=
EXTT8=
EXTT9=
EXTT10=
EXTT11=
EXTT12=
EXTT13=
PLAYORDER=
